:FULLY-SPECIFIED
:FORCE-ALL-JOINTS-BE-3DOF
:DEGREES
544
root 8.13969 14.1307 -3.57642 -173.443 62.5228 -179.015
lfemur -25.8599 -3.05415 -18.5388
ltibia 67.2864 -0 0
lfoot -26.6939 4.30777 0.167335
ltoes -8.63865 0 0
rfemur -38.9097 1.10199 -5.74868
rtibia 34.5787 -0 0
rfoot 10.3073 8.43719 0.129551
rtoes -34.1261 0 0
lowerback 10.7586 0.916228 1.98286
upperback 4.50887 2.15288 6.352
thorax -1.50548 1.27093 5.24092
lowerneck -4.20367 -13.9662 -6.0154
upperneck 10.8293 -18.7513 4.75456
head 5.20091 -9.02401 0.926503
lclavicle 7.75828e-14 7.04265e-15 0
lhumerus -35.9021 -26.8804 100.78
lradius 51.7047 -0 0
lwrist 17.7786 0 0
lhand -17.3067 -6.61647 -0.281156
lfingers 7.12502 0 0
lthumb 4.71157 18.6103 -0.172043
rclavicle 7.75828e-14 7.04265e-15 0
rhumerus 17.0774 5.60098 -66.8045
rradius 133.414 -0 0
rwrist -48.9848 0 0
rhand -22.2968 -19.0837 -0.430746
rfingers 7.12502 0 0
rthumb -0.0491836 -45.1197 -0.582641
545
root 8.20732 14.062 -3.53417 -174.307 59.676 -179.262
lfemur -26.9284 -3.13904 -19.1047
ltibia 69.9469 -0 0
lfoot -27.9072 4.13277 0.199647
ltoes -8.93031 0 0
rfemur -40.3568 0.909626 -5.94106
rtibia 36.2619 -0 0
rfoot 10.228 8.55869 0.172521
rtoes -35.5082 0 0
lowerback 11.1986 0.944097 2.05664
upperback 4.73761 2.22992 6.60601
thorax -1.52004 1.31911 5.45506
lowerneck -4.284 -14.5064 -6.24663
upperneck 11.1814 -19.4866 5.03533
head 5.36939 -9.38103 0.995559
lclavicle 8.45876e-14 6.81547e-15 0
lhumerus -37.3976 -26.158 103.436
lradius 53.468 -0 0
lwrist 18.7653 0 0
lhand -18.2084 -6.79926 -0.300135
lfingers 7.12502 0 0
lthumb 4.67671 19.4196 -0.184228
rclavicle 8.45876e-14 6.81547e-15 0
rhumerus 17.6764 5.84333 -69.3538
rradius 135.563 -0 0
rwrist -50.8008 0 0
rhand -23.3937 -19.8767 -0.455067
rfingers 7.12502 0 0
rthumb -0.272441 -46.8541 -0.610554
546
root 8.27496 13.9932 -3.49191 -175.264 55.828 -179.518
lfemur -28.6616 -3.34718 -20.0717
ltibia 73.9493 -0 0
lfoot -29.8395 3.86665 0.242993
ltoes -9.3456 0 0
rfemur -42.7681 0.659775 -6.22758
rtibia 39.0422 -0 0
rfoot 10.1742 8.79408 0.233093
rtoes -37.6603 0 0
lowerback 11.911 0.989909 2.17098
upperback 5.09299 2.35352 7.00936
thorax -1.55964 1.39591 5.79684
lowerneck -4.45255 -15.3836 -6.62065
upperneck 11.7849 -20.674 5.47664
head 5.65474 -9.96104 1.10038
lclavicle 9.15924e-14 6.58829e-15 0
lhumerus -39.856 -25.1505 107.364
lradius 56.3029 -0 0
lwrist 20.2814 0 0
lhand -19.5437 -7.08807 -0.320529
lfingers 7.12502 0 0
lthumb 4.76937 20.7588 -0.197447
rclavicle 9.15924e-14 6.58829e-15 0
rhumerus 18.5102 6.32702 -73.243
rradius 138.362 -0 0
rwrist -53.465 0 0
rhand -25.0208 -21.1374 -0.47855
rfingers 7.12502 0 0
rthumb -0.469678 -49.588 -0.63258
547
root 8.3426 13.9245 -3.44966 -180.653 46.3973 -182.868
lfemur -33.6469 -5.88619 -15.0556
ltibia 88.9407 0 0
lfoot -39.5906 -13.3481 0
ltoes -3.60323 0 0
rfemur -49.0997 -8.13052 -2.84987
rtibia 65.5231 0 0
rfoot -10.7566 0.259778 0
rtoes -39.0929 0 0
lowerback 12.986 0.604552 1.66225
upperback 6.9725 1.94136 6.80527
thorax -0.131767 1.25582 5.96331
lowerneck -1.83125 -15.6388 -5.78109
upperneck 8.20244 -21.237 8.80926
head 4.32172 -10.2881 2.37983
lclavicle 9.85972e-14 6.36111e-15 0
lhumerus -46.01 -11.1851 103.032
lradius 55.2192 0 0
lwrist 31.5909 0 0
lhand -24.6475 -2.6444 0
lfingers 7.12502 0 0
lthumb 1.85197 27.3273 0
rclavicle 9.85972e-14 6.36111e-15 0
rhumerus 6.08594 19.7702 -89.381
rradius 134.72 0 0
rwrist -44.7914 0 0
rhand -29.263 -22.8451 0
rfingers 7.12502 0 0
rthumb -2.6057 -772.809 0
548
root 8.30614 14.0206 -3.4548 179.576 43.8678 177.444
lfemur -35.8384 -6.05709 -16.4056
ltibia 92.2319 -0 0
lfoot -42.5078 -14.0677 0.00184691
ltoes -3.96349 0 0
rfemur -52.587 -8.71721 -2.77268
rtibia 68.3616 -0 0
rfoot -10.8133 0.652891 0.0749042
rtoes -42.1311 0 0
lowerback 13.9054 0.61047 1.71214
upperback 7.42382 2.00921 7.28967
thorax -0.184662 1.30472 6.43521
lowerneck -2.05344 -16.8703 -6.23821
upperneck 8.9576 -22.8678 9.48317
head 4.683 -11.1095 2.54557
lclavicle 9.54734e-14 4.35433e-15 0
lhumerus -49.5328 -10.8513 107.268
lradius 59.0055 -0 0
lwrist 33.6912 0 0
lhand -26.5852 -3.0125 -0.00246252
lfingers 7.12502 0 0
lthumb 2.0522 29.362 -0.00232779
rclavicle 9.54734e-14 4.35433e-15 0
rhumerus 7.31415 19.739 -93.6014
rradius 137.679 -0 0
rwrist -48.0519 0 0
rhand -31.5129 -24.6719 9.74719e-05
rfingers 7.12502 0 0
rthumb -2.75612 -56.4816 7.68671e-05
549
root 8.26967 14.1166 -3.45994 179.701 42.3961 177.611
lfemur -37.3668 -6.15766 -17.3645
ltibia 94.2963 -0 0
lfoot -44.5646 -14.6098 -0.00103507
ltoes -4.2217 0 0
rfemur -54.9796 -9.15956 -2.69213
rtibia 70.2215 -0 0
rfoot -10.8565 0.939934 0.126684
rtoes -44.2709 0 0
lowerback 14.561 0.610567 1.743
upperback 7.74746 2.05105 7.635
thorax -0.221155 1.33616 6.77517
lowerneck -2.20846 -17.7513 -6.56536
upperneck 9.49601 -24.0264 9.97564
head 4.93929 -11.7003 2.66697
lclavicle 9.23497e-14 2.34756e-15 0
lhumerus -51.9851 -10.5712 109.825
lradius 61.5572 -0 0
lwrist 35.1827 0 0
lhand -27.9867 -3.28014 -0.0036017
lfingers 7.12502 0 0
lthumb 2.17808 30.8083 -0.00332419
rclavicle 9.23497e-14 2.34756e-15 0
rhumerus 8.23452 19.6822 -96.2664
rradius 139.386 -0 0
rwrist -50.2952 0 0
rhand -33.1246 -25.9811 -0.000179471
rfingers 7.12502 0 0
rthumb -2.88096 -58.9848 -0.000199626
550
root 8.23321 14.2127 -3.46509 179.765 41.5808 177.694
lfemur -38.2969 -6.1994 -17.9482
ltibia 95.4756 -0 0
lfoot -45.8538 -14.9876 -0.00803466
ltoes -4.37962 0 0
rfemur -56.4311 -9.4638 -2.61499
rtibia 71.3057 -0 0
rfoot -10.9022 1.11625 0.157331
rtoes -45.6053 0 0
lowerback 14.9663 0.606123 1.75708
upperback 7.95016 2.06991 7.84739
thorax -0.240927 1.35193 6.98797
lowerneck -2.29659 -18.2992 -6.76611
upperneck 9.82037 -24.7432 10.291
head 5.09369 -12.0695 2.74586
lclavicle 8.92259e-14 3.4078e-16 0
lhumerus -53.5009 -10.3471 111.232
lradius 63.0744 -0 0
lwrist 36.1215 0 0
lhand -28.8862 -3.44723 -0.00350732
lfingers 7.12502 0 0
lthumb 2.23164 31.7098 -0.00311545
rclavicle 8.92259e-14 3.4078e-16 0
rhumerus 8.83605 19.6504 -97.8127
rradius 140.314 -0 0
rwrist -51.6488 0 0
rhand -34.1471 -26.8033 -0.000785804
rfingers 7.12502 0 0
rthumb -2.98186 -60.4987 -0.000772474
551
root 8.19674 14.3087 -3.47023 179.789 41.2216 177.721
lfemur -38.6991 -6.19169 -18.188
ltibia 95.9786 -0 0
lfoot -46.4725 -15.2159 -0.0185418
ltoes -4.44398 0 0
rfemur -57.0814 -9.64069 -2.54453
rtibia 71.7601 -0 0
rfoot -10.9569 1.18643 0.169071
rtoes -46.234 0 0
lowerback 15.1428 0.598112 1.75645
upperback 8.04227 2.06871 7.93774
thorax -0.244897 1.35389 7.08352
lowerneck -2.32221 -18.5433 -6.84974
upperneck 9.94502 -25.0612 10.4416
head 5.15394 -12.235 2.78553
lclavicle 8.61022e-14 -1.666e-15 0
lhumerus -54.2113 -10.1703 111.79
lradius 63.7262 -0 0
lwrist 36.5704 0 0
lhand -29.3318 -3.51973 -0.00229472
lfingers 7.12502 0 0
lthumb 2.21886 32.1231 -0.00183194
rclavicle 8.61022e-14 -1.666e-15 0
rhumerus 9.1318 19.6591 -98.5105
rradius 140.699 -0 0
rwrist -52.2361 0 0
rhand -34.6422 -27.1839 -0.00167663
rfingers 7.12502 0 0
rthumb -3.0604 -61.1796 -0.00160104
